<svg xmlns="http://www.w3.org/2000/svg" width="255.5" height="172.48" viewBox="0 0 255.5 172.48">
  <title>apply-for-loan-v2</title>
  <g id="Layer_2" data-name="Layer 2">
    <g id="Guides">
      <g>
        <g>
          <rect x="66.21" y="0.5" width="188.78" height="143.67" rx="6" ry="6" fill="#fff"/>
          <rect x="66.21" y="0.5" width="188.78" height="143.67" rx="6" ry="6" fill="none" stroke="#6baea1" stroke-linecap="round" stroke-linejoin="round"/>
        </g>
        <g>
          <path d="M128.31,37.23c0,1.81-2.25,3.28-5,3.28H82.87c-2.75,0-5-1.48-5-3.28s2.25-3.28,5-3.28h40.45C126.06,33.95,128.31,35.42,128.31,37.23Z" fill="#fff"/>
          <path d="M128.31,37.23c0,1.81-2.25,3.28-5,3.28H82.87c-2.75,0-5-1.48-5-3.28s2.25-3.28,5-3.28h40.45C126.06,33.95,128.31,35.42,128.31,37.23Z" fill="none" stroke="#6baea1" stroke-linecap="round" stroke-linejoin="round"/>
        </g>
        <g>
          <path d="M186,37.23c0,1.81-2.25,3.28-5,3.28H140.5c-2.75,0-5-1.48-5-3.28s2.25-3.28,5-3.28H181C183.7,33.94,186,35.42,186,37.23Z" fill="#fff"/>
          <path d="M186,37.23c0,1.81-2.25,3.28-5,3.28H140.5c-2.75,0-5-1.48-5-3.28s2.25-3.28,5-3.28H181C183.7,33.94,186,35.42,186,37.23Z" fill="none" stroke="#6baea1" stroke-linecap="round" stroke-linejoin="round"/>
        </g>
        <g>
          <path d="M243.34,37.23c0,1.81-2.25,3.28-5,3.28H197.89c-2.75,0-5-1.48-5-3.28s2.25-3.28,5-3.28h40.45C241.09,33.94,243.34,35.42,243.34,37.23Z" fill="#fff"/>
          <path d="M243.34,37.23c0,1.81-2.25,3.28-5,3.28H197.89c-2.75,0-5-1.48-5-3.28s2.25-3.28,5-3.28h40.45C241.09,33.94,243.34,35.42,243.34,37.23Z" fill="none" stroke="#6baea1" stroke-linecap="round" stroke-linejoin="round"/>
        </g>
        <g>
          <path d="M243.34,55.79c0,1.81-2.25,3.28-5,3.28H82.87c-2.75,0-5-1.48-5-3.28s2.25-3.28,5-3.28H238.34C241.09,52.51,243.34,54,243.34,55.79Z" fill="#fff"/>
          <path d="M243.34,55.79c0,1.81-2.25,3.28-5,3.28H82.87c-2.75,0-5-1.48-5-3.28s2.25-3.28,5-3.28H238.34C241.09,52.51,243.34,54,243.34,55.79Z" fill="none" stroke="#6baea1" stroke-linecap="round" stroke-linejoin="round"/>
        </g>
        <g>
          <path d="M243.34,74.36c0,1.81-2.25,3.28-5,3.28H82.87c-2.75,0-5-1.48-5-3.28s2.25-3.28,5-3.28H238.34C241.09,71.08,243.34,72.56,243.34,74.36Z" fill="#fff"/>
          <path d="M243.34,74.36c0,1.81-2.25,3.28-5,3.28H82.87c-2.75,0-5-1.48-5-3.28s2.25-3.28,5-3.28H238.34C241.09,71.08,243.34,72.56,243.34,74.36Z" fill="none" stroke="#6baea1" stroke-linecap="round" stroke-linejoin="round"/>
        </g>
        <g>
          <path d="M237.5,97.47c0,1.81-2.25,3.28-5,3.28H77c-2.75,0-5-1.48-5-3.28s2.25-3.28,5-3.28H232.5C235.25,94.18,237.5,95.66,237.5,97.47Z" fill="#fff"/>
          <path d="M237.5,97.47c0,1.81-2.25,3.28-5,3.28H77c-2.75,0-5-1.48-5-3.28s2.25-3.28,5-3.28H232.5C235.25,94.18,237.5,95.66,237.5,97.47Z" fill="none" stroke="#6baea1" stroke-linecap="round" stroke-linejoin="round"/>
        </g>
        <g>
          <path d="M159,111.5c0,1.81-2.25,3.28-5,3.28H82.87c-2.75,0-5-1.48-5-3.28s2.25-3.28,5-3.28H154C156.72,108.22,159,109.69,159,111.5Z" fill="#fff"/>
          <path d="M159,111.5c0,1.81-2.25,3.28-5,3.28H82.87c-2.75,0-5-1.48-5-3.28s2.25-3.28,5-3.28H154C156.72,108.22,159,109.69,159,111.5Z" fill="none" stroke="#6baea1" stroke-linecap="round" stroke-linejoin="round"/>
        </g>
        <g>
          <path d="M243.34,111.5c0,1.81-2.25,3.28-5,3.28H171.55c-2.75,0-5-1.48-5-3.28s2.25-3.28,5-3.28h66.79C241.09,108.22,243.34,109.69,243.34,111.5Z" fill="#fff"/>
          <path d="M243.34,111.5c0,1.81-2.25,3.28-5,3.28H171.55c-2.75,0-5-1.48-5-3.28s2.25-3.28,5-3.28h66.79C241.09,108.22,243.34,109.69,243.34,111.5Z" fill="none" stroke="#6baea1" stroke-linecap="round" stroke-linejoin="round"/>
        </g>
        <g>
          <path d="M169,127.4c0,1.81-2.25,3.28-5,3.28h-6.88c-2.75,0-5-1.48-5-3.28s2.25-3.28,5-3.28H164C166.79,124.12,169,125.59,169,127.4Z" fill="#fff"/>
          <path d="M169,127.4c0,1.81-2.25,3.28-5,3.28h-6.88c-2.75,0-5-1.48-5-3.28s2.25-3.28,5-3.28H164C166.79,124.12,169,125.59,169,127.4Z" fill="none" stroke="#6baea1" stroke-linecap="round" stroke-linejoin="round"/>
        </g>
        <line x1="114.45" y1="16.13" x2="206.76" y2="16.13" fill="none" stroke="#6baea1" stroke-linecap="round" stroke-linejoin="round"/>
        <path d="M154.76,163h-11.2V89.72a6.11,6.11,0,0,0-6.11-6.11H17.81a6.11,6.11,0,0,0-6.11,6.11V163H.5v4.07a4.07,4.07,0,0,0,4.07,4.07H150.69a4.07,4.07,0,0,0,4.07-4.07Z" fill="#f3f3f3" stroke="#6baea1" stroke-linecap="round" stroke-linejoin="round"/>
        <line x1="11.7" y1="163.05" x2="143.56" y2="163.05" fill="none" stroke="#6baea1" stroke-linecap="round" stroke-linejoin="round"/>
        <rect x="19.85" y="91.76" width="115.56" height="63.14" fill="#f3f3f3" stroke="#6baea1" stroke-linecap="round" stroke-linejoin="round"/>
        <polyline points="68.72 163.05 68.72 166.1 86.54 166.1 86.54 163.05" fill="none" stroke="#6baea1" stroke-linecap="round" stroke-linejoin="round"/>
        <line x1="191.92" y1="171.76" x2="208.89" y2="171.76" fill="none" stroke="#6baea1" stroke-linecap="round" stroke-linejoin="round"/>
        <line x1="213.45" y1="171.76" x2="221.6" y2="171.76" fill="none" stroke="#6baea1" stroke-linecap="round" stroke-linejoin="round"/>
        <line x1="40.99" y1="63.79" x2="24.02" y2="63.79" fill="none" stroke="#6baea1" stroke-linecap="round" stroke-linejoin="round"/>
        <line x1="19.12" y1="63.79" x2="10.97" y2="63.79" fill="none" stroke="#6baea1" stroke-linecap="round" stroke-linejoin="round"/>
        <g>
          <g>
            <line x1="47.11" y1="106.81" x2="63.64" y2="106.81" fill="none" stroke="#6baea1" stroke-linecap="round" stroke-linejoin="round"/>
            <line x1="69.36" y1="106.81" x2="85.9" y2="106.81" fill="none" stroke="#6baea1" stroke-linecap="round" stroke-linejoin="round"/>
            <line x1="91.62" y1="106.81" x2="108.15" y2="106.81" fill="none" stroke="#6baea1" stroke-linecap="round" stroke-linejoin="round"/>
            <line x1="47.11" y1="113.01" x2="108.15" y2="113.01" fill="none" stroke="#6baea1" stroke-linecap="round" stroke-linejoin="round"/>
            <line x1="47.11" y1="119.74" x2="108.15" y2="119.74" fill="none" stroke="#6baea1" stroke-linecap="round" stroke-linejoin="round"/>
            <line x1="47.11" y1="126.61" x2="108.15" y2="126.61" fill="none" stroke="#6baea1" stroke-linecap="round" stroke-linejoin="round"/>
            <line x1="47.11" y1="133.13" x2="75.29" y2="133.13" fill="none" stroke="#6baea1" stroke-linecap="round" stroke-linejoin="round"/>
            <line x1="81.15" y1="133.13" x2="108.15" y2="133.13" fill="none" stroke="#6baea1" stroke-linecap="round" stroke-linejoin="round"/>
          </g>
          <line x1="74.7" y1="139.85" x2="80.56" y2="139.85" fill="none" stroke="#6baea1" stroke-linecap="round" stroke-linejoin="round"/>
        </g>
        <circle cx="32.5" cy="34.48" r="5.88" fill="none" stroke="#f48120" stroke-miterlimit="10"/>
        <circle cx="247.09" cy="166.1" r="5.88" fill="none" stroke="#f48120" stroke-miterlimit="10"/>
      </g>
    </g>
  </g>
</svg>
