<svg xmlns="http://www.w3.org/2000/svg" width="217.63" height="209.92" viewBox="0 0 217.63 209.92">
  <title>one-on-one-advice-v2</title>
  <g id="Layer_2" data-name="Layer 2">
    <g id="Guides">
      <circle cx="108.82" cy="101.71" r="69.12" fill="#f3f3f3" stroke="#6baea1" stroke-linecap="round" stroke-linejoin="round"/>
      <g>
        <g>
          <line x1="141.71" y1="0.5" x2="120.25" y2="0.5" fill="none" stroke="#6baea1" stroke-linecap="round" stroke-linejoin="round"/>
          <line x1="114.06" y1="0.5" x2="103.76" y2="0.5" fill="none" stroke="#6baea1" stroke-linecap="round" stroke-linejoin="round"/>
        </g>
        <g>
          <line x1="113.87" y1="209.42" x2="92.41" y2="209.42" fill="none" stroke="#6baea1" stroke-linecap="round" stroke-linejoin="round"/>
          <line x1="86.22" y1="209.42" x2="75.92" y2="209.42" fill="none" stroke="#6baea1" stroke-linecap="round" stroke-linejoin="round"/>
        </g>
      </g>
      <g>
        <path d="M192.17,99.6H126.11a2.75,2.75,0,0,1-2.75-2.75V91.91a14.81,14.81,0,0,1,7.73-13l13.43-7.33a1.67,1.67,0,0,0,.87-1.46V64.5A38.24,38.24,0,0,1,141,54.76a1.77,1.77,0,0,0-.59-.95c-.81-.6-3.29-2.43-3.29-5.19v-6a5.78,5.78,0,0,1,2.15-4.08,1.94,1.94,0,0,0,.64-1.43v-6.4A14.83,14.83,0,0,1,143.36,20c3.33-3.8,8.63-5.73,15.77-5.75s12.46,1.95,15.8,5.75a14.86,14.86,0,0,1,3.48,10.68V37.1a1.93,1.93,0,0,0,.63,1.42,5.82,5.82,0,0,1,2.13,4.07v6c0,2.77-2.48,4.59-3.29,5.19a1.79,1.79,0,0,0-.59,1,38.13,38.13,0,0,1-4.37,9.74v5.6a1.67,1.67,0,0,0,.87,1.47l13.43,7.32a14.81,14.81,0,0,1,7.73,13v4.94a2.75,2.75,0,0,1-2.75,2.75Z" fill="#fff" stroke="#6baea1" stroke-linecap="round" stroke-linejoin="round"/>
        <path d="M88.53,184.07H22.46a2.75,2.75,0,0,1-2.75-2.75v-4.94a14.82,14.82,0,0,1,7.72-13L40.86,156c.24-.13.87-.47.87-2.4V149a38.18,38.18,0,0,1-4.55-10.39c-1.63-1.13-3.71-2.9-3.71-5.49v-6c0-2.15,1.56-3.61,2.79-4.63v-7.28a14.83,14.83,0,0,1,3.45-10.68c3.33-3.8,8.63-5.73,15.78-5.75s12.46,1.95,15.8,5.74a14.86,14.86,0,0,1,3.48,10.68v7.28c1.22,1,2.75,2.49,2.75,4.62v6c0,2.58-2.08,4.36-3.71,5.49A38.29,38.29,0,0,1,69.26,149v4.67c0,1.92.63,2.27.87,2.4l13.43,7.33a14.82,14.82,0,0,1,7.73,13v4.94a2.75,2.75,0,0,1-2.75,2.75Z" fill="#fff" stroke="#6baea1" stroke-linecap="round" stroke-linejoin="round"/>
      </g>
      <g>
        <path d="M194.65,156.46l-8.25-8.25a2.74,2.74,0,0,0-.43-.35l-.19-.1a2.69,2.69,0,0,0-.28-.15l-.3-.09-.21-.06a2.76,2.76,0,0,0-1.08,0l-.21.06a2.7,2.7,0,0,0-.3.09,2.65,2.65,0,0,0-.28.15l-.19.1a2.75,2.75,0,0,0-.43.35l-8.25,8.25a2.75,2.75,0,1,0,3.89,3.89L181,157.5a38.6,38.6,0,0,1-37.83,31.18,2.75,2.75,0,0,0,0,5.51,44.11,44.11,0,0,0,43.6-37.84l4,4a2.75,2.75,0,0,0,3.89-3.89Z" fill="#fff" stroke="#6baea1" stroke-linecap="round" stroke-linejoin="round"/>
        <path d="M74.48,7.14A44.11,44.11,0,0,0,30.88,45l-4-4A2.75,2.75,0,0,0,23,44.87l8.25,8.25a2.75,2.75,0,0,0,.43.35l.17.09a2.73,2.73,0,0,0,.3.16l.25.08.26.08a2.7,2.7,0,0,0,1.08,0l.26-.08.25-.08a2.69,2.69,0,0,0,.3-.16l.17-.09a2.76,2.76,0,0,0,.43-.35l8.25-8.25A2.75,2.75,0,1,0,39.5,41l-2.85,2.85A38.6,38.6,0,0,1,74.48,12.65a2.75,2.75,0,1,0,0-5.51Z" fill="#fff" stroke="#6baea1" stroke-linecap="round" stroke-linejoin="round"/>
      </g>
      <g>
        <circle cx="6.38" cy="87.05" r="5.88" fill="none" stroke="#f48120" stroke-miterlimit="10"/>
        <circle cx="211.25" cy="134.39" r="5.88" fill="none" stroke="#f48120" stroke-miterlimit="10"/>
      </g>
    </g>
  </g>
</svg>
